Coordinates
version=1
nRows=9
nColumns=24
inDegrees=yes

Units are S.I. units (second, meters, Newtons, ...)
Angles are in degrees.

endheader
time	pelvis_tilt	pelvis_list	pelvis_rotation	pelvis_tx	pelvis_ty	pelvis_tz	hip_flexion_r	hip_adduction_r	hip_rotation_r	knee_angle_r	ankle_angle_r	subtalar_angle_r	mtp_angle_r	hip_flexion_l	hip_adduction_l	hip_rotation_l	knee_angle_l	ankle_angle_l	subtalar_angle_l	mtp_angle_l	lumbar_extension	lumbar_bending	lumbar_rotation
      1.65500000	      2.05201700	      1.65451144	     -2.54458989	      0.88820042	      0.88307206	      0.03564613	     -5.33297258	     -1.85245843	     -1.10525576	    -55.99114324	     -3.44526809	     -2.88929707	     50.18322830	     21.09888971	      6.62446245	     -1.81925900	    -25.29066621	     11.61948127	     -5.54455625	     30.36953407	    -11.25659085	     -4.71208708	     -1.53031376
      1.66000000	      2.07647408	      2.03763978	     -2.49741681	      0.89618828	      0.88378097	      0.03559771	     -4.18253323	     -2.22979085	     -1.01788662	    -57.78817858	     -3.14497466	     -3.96415016	     47.88668278	     20.59241237	      7.01719502	     -2.02150424	    -25.44363067	     12.29486397	     -5.05801357	     29.53914136	    -11.28198840	     -5.14462406	     -1.67430091
      1.66500000	      2.08955953	      2.35264213	     -2.43944947	      0.90414501	      0.88461087	      0.03558756	     -3.02850853	     -2.52223158	     -0.93365627	    -59.45381838	     -2.74184592	     -5.04578555	     46.17256666	     20.04364598	      7.32834882	     -2.23275166	    -25.51239292	     13.01105934	     -4.41784516	     28.99238209	    -11.30035144	     -5.49871044	     -1.83993861
      1.67000000	      2.16269256	      2.65734288	     -2.41863825	      0.91205438	      0.88565512	      0.03557034	     -1.93078487	     -2.81485982	     -0.82526656	    -61.02289804	     -2.09196300	     -5.95890284	     43.82534263	     19.34982509	      7.64831303	     -2.39531121	    -25.41798186	     13.61441574	     -4.07684186	     28.06883355	    -11.38562091	     -5.83934405	     -1.93974098
      1.67500000	      2.22405154	      2.88897223	     -2.38306169	      0.91992149	      0.88680080	      0.03553652	     -0.82782798	     -3.02938103	     -0.74209371	    -62.45978554	     -1.36685599	     -6.80715353	     42.04787705	     18.61988058	      7.89809208	     -2.49708878	    -25.23619134	     14.20602272	     -3.64591822	     27.24248531	    -11.46228931	     -6.08964961	     -2.01370359
      1.68000000	      2.28081139	      3.05753254	     -2.38310108	      0.92776291	      0.88807221	      0.03560638	      0.27605059	     -3.15357215	     -0.60426666	    -63.75492479	     -0.65672743	     -7.77196786	     41.52358008	     17.84259912	      8.06863416	     -2.62402096	    -24.95502469	     14.69886438	     -3.29326105	     27.10265630	    -11.53153128	     -6.27586515	     -2.06602376
      1.68500000	      2.34779395	      3.20637816	     -2.33517241	      0.93559135	      0.88941375	      0.03558609	      1.36118027	     -3.28001544	     -0.54966632	    -64.96299177	      0.33873913	     -8.26620135	     39.26044706	     17.01491687	      8.24286421	     -2.65695414	    -24.61162695	     15.29263729	     -2.80803808	     26.17314113	    -11.61779077	     -6.42646445	     -2.17226918
      1.69000000	      2.41842280	      3.32273834	     -2.35123903	      0.94339184	      0.89087522	      0.03561560	      2.45050483	     -3.36761472	     -0.43721000	    -66.03428398	      1.16514784	     -8.98167995	     38.99322777	     16.11975090	      8.39027522	     -2.65667221	    -24.12347423	     15.64833396	     -2.67630494	     26.04535281	    -11.69978702	     -6.54190279	     -2.16828472
      1.69500000	      2.49460994	      3.36378525	     -2.32621652	      0.95119710	      0.89240063	      0.03565825	      3.50397743	     -3.36369141	     -0.36624790	    -66.98483765	      2.30197619	     -9.31570498	     37.06914811	     15.19709451	      8.45719356	     -2.62818106	    -23.62329632	     16.13250571	     -2.28711034	     25.11377016	    -11.79246304	     -6.56752990	     -2.26090257
